<svg width="30" height="30" viewBox="0 0 30 30" fill="none" xmlns="http://www.w3.org/2000/svg">
<g opacity="0.67">
<path d="M16.2857 2.50129C17.1979 2.49779 18.1101 2.50696 19.022 2.52879L19.2645 2.53754C19.5445 2.54754 19.8207 2.56004 20.1545 2.57504C21.4845 2.63754 22.392 2.84754 23.1882 3.15629C24.0132 3.47379 24.7082 3.90379 25.4032 4.59879C26.0387 5.2233 26.5305 5.97873 26.8445 6.81254C27.1532 7.60879 27.3632 8.51754 27.4257 9.84754C27.4407 10.18 27.4532 10.4575 27.4632 10.7375L27.4707 10.98C27.4929 11.8915 27.5025 12.8033 27.4995 13.715L27.5007 14.6475V16.285C27.5038 17.1972 27.4942 18.1094 27.472 19.0213L27.4645 19.2638C27.4545 19.5438 27.442 19.82 27.427 20.1538C27.3645 21.4838 27.152 22.3913 26.8445 23.1875C26.5315 24.0222 26.0396 24.7783 25.4032 25.4025C24.7782 26.0379 24.0224 26.5297 23.1882 26.8438C22.392 27.1525 21.4845 27.3625 20.1545 27.425C19.8207 27.44 19.5445 27.4525 19.2645 27.4625L19.022 27.47C18.1101 27.4923 17.1979 27.5018 16.2857 27.4988L15.3532 27.5H13.717C12.8048 27.5031 11.8926 27.4935 10.9807 27.4713L10.7382 27.4638C10.4415 27.453 10.1448 27.4405 9.84822 27.4263C8.51822 27.3638 7.61072 27.1513 6.81322 26.8438C5.97908 26.5305 5.22352 26.0386 4.59947 25.4025C3.96328 24.7779 3.471 24.022 3.15697 23.1875C2.84822 22.3913 2.63822 21.4838 2.57572 20.1538C2.5618 19.8572 2.5493 19.5605 2.53822 19.2638L2.53197 19.0213C2.50893 18.1094 2.49851 17.1972 2.50072 16.285V13.715C2.49723 12.8033 2.5064 11.8915 2.52822 10.98L2.53697 10.7375C2.54697 10.4575 2.55947 10.18 2.57447 9.84754C2.63697 8.51629 2.84697 7.61004 3.15572 6.81254C3.46994 5.97832 3.96318 5.2231 4.60072 4.60004C5.22434 3.96348 5.97942 3.47076 6.81322 3.15629C7.61072 2.84754 8.51697 2.63754 9.84822 2.57504L10.7382 2.53754L10.9807 2.53129C11.8922 2.50826 12.804 2.49784 13.7157 2.50004L16.2857 2.50129ZM15.0007 8.75129C14.1726 8.73958 13.3504 8.89257 12.5819 9.20138C11.8135 9.51018 11.114 9.96864 10.5243 10.5501C9.93453 11.1316 9.46622 11.8245 9.14658 12.5885C8.82694 13.3525 8.66234 14.1725 8.66234 15.0007C8.66234 15.8289 8.82694 16.6488 9.14658 17.4128C9.46622 18.1769 9.93453 18.8698 10.5243 19.4512C11.114 20.0327 11.8135 20.4912 12.5819 20.8C13.3504 21.1088 14.1726 21.2618 15.0007 21.25C16.6583 21.25 18.248 20.5916 19.4201 19.4195C20.5922 18.2474 21.2507 16.6576 21.2507 15C21.2507 13.3424 20.5922 11.7527 19.4201 10.5806C18.248 9.40852 16.6583 8.75129 15.0007 8.75129ZM15.0007 11.2513C15.4989 11.2421 15.9938 11.3323 16.4567 11.5166C16.9196 11.7008 17.3411 11.9755 17.6967 12.3245C18.0522 12.6735 18.3347 13.0898 18.5275 13.5492C18.7204 14.0086 18.8197 14.5018 18.8198 15C18.8199 15.4983 18.7207 15.9915 18.528 16.4509C18.3353 16.9104 18.053 17.3268 17.6976 17.676C17.3422 18.0251 16.9207 18.2999 16.4579 18.4843C15.995 18.6687 15.5001 18.7591 15.002 18.75C14.0074 18.75 13.0536 18.355 12.3503 17.6517C11.6471 16.9484 11.252 15.9946 11.252 15C11.252 14.0055 11.6471 13.0517 12.3503 12.3484C13.0536 11.6451 14.0074 11.25 15.002 11.25L15.0007 11.2513ZM21.5632 6.87629C21.16 6.89243 20.7786 7.06398 20.499 7.35501C20.2194 7.64603 20.0632 8.03396 20.0632 8.43754C20.0632 8.84113 20.2194 9.22905 20.499 9.52008C20.7786 9.81111 21.16 9.98265 21.5632 9.99879C21.9776 9.99879 22.3751 9.83417 22.6681 9.54115C22.9611 9.24812 23.1257 8.85069 23.1257 8.43629C23.1257 8.02189 22.9611 7.62447 22.6681 7.33144C22.3751 7.03841 21.9776 6.87379 21.5632 6.87379V6.87629Z" fill="black"/>
</g>
</svg>
