<svg width="30" height="30" viewBox="0 0 30 30" fill="none" xmlns="http://www.w3.org/2000/svg">
<g opacity="0.67">
<path d="M17.225 11.825C17.1626 11.825 17.1009 11.8373 17.0432 11.8612C16.9856 11.885 16.9332 11.92 16.8891 11.9641C16.845 12.0082 16.81 12.0606 16.7862 12.1182C16.7623 12.1759 16.75 12.2376 16.75 12.3V14.3875L15 12.0625C14.9564 11.9917 14.8958 11.933 14.8238 11.8915C14.7518 11.85 14.6706 11.8272 14.5875 11.825C14.5251 11.825 14.4634 11.8373 14.4057 11.8612C14.3481 11.885 14.2957 11.92 14.2516 11.9641C14.2075 12.0082 14.1725 12.0606 14.1487 12.1182C14.1248 12.1759 14.1125 12.2376 14.1125 12.3V15.85C14.1125 15.9124 14.1248 15.9741 14.1487 16.0318C14.1725 16.0894 14.2075 16.1418 14.2516 16.1859C14.2957 16.23 14.3481 16.265 14.4057 16.2888C14.4634 16.3127 14.5251 16.325 14.5875 16.325C14.6499 16.325 14.7116 16.3127 14.7693 16.2888C14.8269 16.265 14.8793 16.23 14.9234 16.1859C14.9675 16.1418 15.0025 16.0894 15.0263 16.0318C15.0502 15.9741 15.0625 15.9124 15.0625 15.85V13.75L16.8 16.1375C16.8442 16.2041 16.9107 16.2528 16.9875 16.275C17.0451 16.2879 17.1049 16.2879 17.1625 16.275C17.2173 16.2949 17.2758 16.303 17.3339 16.2987C17.3921 16.2944 17.4487 16.2778 17.5 16.25L17.625 16.1625C17.7127 16.072 17.762 15.951 17.7625 15.825V12.3C17.7631 12.232 17.7491 12.1647 17.7214 12.1025C17.6937 12.0404 17.653 11.985 17.6021 11.9399C17.5511 11.8949 17.4911 11.8613 17.426 11.8415C17.361 11.8217 17.2924 11.816 17.225 11.825ZM11.5 15.3375H10.175V12.3C10.175 12.174 10.125 12.0532 10.0359 11.9641C9.9468 11.875 9.82598 11.825 9.7 11.825C9.57402 11.825 9.4532 11.875 9.36412 11.9641C9.27504 12.0532 9.225 12.174 9.225 12.3V15.85C9.225 15.976 9.27504 16.0968 9.36412 16.1859C9.4532 16.275 9.57402 16.325 9.7 16.325H11.5C11.6272 16.325 11.7493 16.2754 11.8404 16.1867C11.9314 16.0979 11.9842 15.9771 11.9875 15.85C11.9909 15.7839 11.9808 15.7178 11.9578 15.6558C11.9348 15.5937 11.8995 15.537 11.8539 15.489C11.8083 15.4411 11.7534 15.4029 11.6925 15.3768C11.6317 15.3508 11.5662 15.3374 11.5 15.3375ZM12.8875 11.825C12.7603 11.825 12.6382 11.8746 12.5471 11.9633C12.4561 12.0521 12.4033 12.1729 12.4 12.3V15.85C12.4033 15.9771 12.4561 16.0979 12.5471 16.1867C12.6382 16.2754 12.7603 16.325 12.8875 16.325C13.0135 16.325 13.1343 16.275 13.2234 16.1859C13.3125 16.0968 13.3625 15.976 13.3625 15.85V12.3C13.3625 12.174 13.3125 12.0532 13.2234 11.9641C13.1343 11.875 13.0135 11.825 12.8875 11.825ZM22.3875 2.5H7.6125C6.2576 2.5033 4.95913 3.043 4.00106 4.00106C3.043 4.95913 2.5033 6.2576 2.5 7.6125V22.3875C2.5033 23.7424 3.043 25.0409 4.00106 25.9989C4.95913 26.957 6.2576 27.4967 7.6125 27.5H22.3875C23.7424 27.4967 25.0409 26.957 25.9989 25.9989C26.957 25.0409 27.4967 23.7424 27.5 22.3875V7.6125C27.4967 6.2576 26.957 4.95913 25.9989 4.00106C25.0409 3.043 23.7424 2.5033 22.3875 2.5ZM22.775 17.85C22.7258 17.9245 22.6715 17.9955 22.6125 18.0625C22.3144 18.4293 21.9793 18.7644 21.6125 19.0625C19.1125 21.4 14.9125 24.2 14.35 23.7625C13.7875 23.325 15.15 21.5625 13.6875 21.2625C13.5837 21.2756 13.4788 21.2756 13.375 21.2625C9.075 20.6625 5.875 17.65 5.875 14.0375C5.875 9.975 9.9875 6.6875 15.05 6.6875C20.1125 6.6875 24.225 9.975 24.225 14.0375C24.1816 15.4347 23.6711 16.7771 22.775 17.85ZM20.6375 11.8375H18.75C18.6876 11.8375 18.6259 11.8498 18.5682 11.8737C18.5106 11.8975 18.4582 11.9325 18.4141 11.9766C18.37 12.0207 18.335 12.0731 18.3112 12.1307C18.2873 12.1884 18.275 12.2501 18.275 12.3125V15.8625C18.275 15.9885 18.325 16.1093 18.4141 16.1984C18.5032 16.2875 18.624 16.3375 18.75 16.3375H20.6C20.726 16.3375 20.8468 16.2875 20.9359 16.1984C21.025 16.1093 21.075 15.9885 21.075 15.8625C21.075 15.8001 21.0627 15.7384 21.0388 15.6807C21.015 15.6231 20.98 15.5707 20.9359 15.5266C20.8918 15.4825 20.8394 15.4475 20.7818 15.4237C20.7241 15.3998 20.6624 15.3875 20.6 15.3875H19.3125V14.6375H20.6375C20.7646 14.6342 20.8854 14.5814 20.9742 14.4904C21.0629 14.3993 21.1125 14.2772 21.1125 14.15C21.1125 14.024 21.0625 13.9032 20.9734 13.8141C20.8843 13.725 20.7635 13.675 20.6375 13.675H19.3125V12.9125H20.6375C20.6999 12.9125 20.7616 12.9002 20.8193 12.8763C20.8769 12.8525 20.9293 12.8175 20.9734 12.7734C21.0175 12.7293 21.0525 12.6769 21.0763 12.6193C21.1002 12.5616 21.1125 12.4999 21.1125 12.4375C21.1321 12.3657 21.1346 12.2902 21.1197 12.2172C21.1048 12.1442 21.073 12.0758 21.0267 12.0174C20.9805 11.959 20.9212 11.9123 20.8536 11.881C20.786 11.8498 20.7119 11.8349 20.6375 11.8375Z" fill="black"/>
</g>
</svg>
